<mxfile host="app.diagrams.net" modified="2023-08-09T21:12:04.403Z" agent="Mozilla/5.0 (Windows NT 10.0; Win64; x64) AppleWebKit/537.36 (KHTML, like Gecko) Chrome/111.0.0.0 Safari/537.36" etag="tt0ncCaxdYswt-C2LxqD" version="21.6.7" type="device">
  <diagram name="PÃ¡gina-1" id="kh2xwaiA-wLNrIT2rcYZ">
    <mxGraphModel dx="880" dy="1596" grid="1" gridSize="10" guides="1" tooltips="1" connect="1" arrows="1" fold="1" page="1" pageScale="1" pageWidth="827" pageHeight="1169" math="0" shadow="0">
      <root>
        <mxCell id="0" />
        <mxCell id="1" parent="0" />
        <mxCell id="1bLHogTg0dHGmXlVJYBw-1" value="local" style="shape=umlActor;verticalLabelPosition=bottom;verticalAlign=top;html=1;" vertex="1" parent="1">
          <mxGeometry x="90" y="280" width="30" height="60" as="geometry" />
        </mxCell>
        <mxCell id="1bLHogTg0dHGmXlVJYBw-3" value="loguearse" style="ellipse;whiteSpace=wrap;html=1;" vertex="1" parent="1">
          <mxGeometry x="300" y="-160" width="140" height="40" as="geometry" />
        </mxCell>
        <mxCell id="1bLHogTg0dHGmXlVJYBw-6" value="cliente" style="shape=umlActor;verticalLabelPosition=bottom;verticalAlign=top;html=1;" vertex="1" parent="1">
          <mxGeometry x="90" y="160" width="30" height="60" as="geometry" />
        </mxCell>
        <mxCell id="1bLHogTg0dHGmXlVJYBw-19" style="edgeStyle=none;rounded=0;orthogonalLoop=1;jettySize=auto;html=1;" edge="1" parent="1" source="1bLHogTg0dHGmXlVJYBw-7" target="1bLHogTg0dHGmXlVJYBw-3">
          <mxGeometry relative="1" as="geometry" />
        </mxCell>
        <mxCell id="1bLHogTg0dHGmXlVJYBw-20" style="edgeStyle=none;rounded=0;orthogonalLoop=1;jettySize=auto;html=1;" edge="1" parent="1" source="1bLHogTg0dHGmXlVJYBw-7" target="1bLHogTg0dHGmXlVJYBw-13">
          <mxGeometry relative="1" as="geometry" />
        </mxCell>
        <mxCell id="1bLHogTg0dHGmXlVJYBw-21" style="edgeStyle=none;rounded=0;orthogonalLoop=1;jettySize=auto;html=1;" edge="1" parent="1" source="1bLHogTg0dHGmXlVJYBw-7" target="1bLHogTg0dHGmXlVJYBw-14">
          <mxGeometry relative="1" as="geometry" />
        </mxCell>
        <mxCell id="1bLHogTg0dHGmXlVJYBw-22" style="edgeStyle=none;rounded=0;orthogonalLoop=1;jettySize=auto;html=1;" edge="1" parent="1" source="1bLHogTg0dHGmXlVJYBw-7" target="1bLHogTg0dHGmXlVJYBw-15">
          <mxGeometry relative="1" as="geometry" />
        </mxCell>
        <mxCell id="1bLHogTg0dHGmXlVJYBw-23" style="edgeStyle=none;rounded=0;orthogonalLoop=1;jettySize=auto;html=1;" edge="1" parent="1" source="1bLHogTg0dHGmXlVJYBw-7" target="1bLHogTg0dHGmXlVJYBw-16">
          <mxGeometry relative="1" as="geometry" />
        </mxCell>
        <mxCell id="1bLHogTg0dHGmXlVJYBw-24" style="edgeStyle=none;rounded=0;orthogonalLoop=1;jettySize=auto;html=1;" edge="1" parent="1" source="1bLHogTg0dHGmXlVJYBw-7" target="1bLHogTg0dHGmXlVJYBw-17">
          <mxGeometry relative="1" as="geometry" />
        </mxCell>
        <mxCell id="1bLHogTg0dHGmXlVJYBw-25" style="edgeStyle=none;rounded=0;orthogonalLoop=1;jettySize=auto;html=1;" edge="1" parent="1" source="1bLHogTg0dHGmXlVJYBw-7" target="1bLHogTg0dHGmXlVJYBw-18">
          <mxGeometry relative="1" as="geometry" />
        </mxCell>
        <mxCell id="1bLHogTg0dHGmXlVJYBw-7" value="usuario" style="shape=umlActor;verticalLabelPosition=bottom;verticalAlign=top;html=1;" vertex="1" parent="1">
          <mxGeometry x="90" y="40" width="30" height="60" as="geometry" />
        </mxCell>
        <mxCell id="1bLHogTg0dHGmXlVJYBw-9" value="comp&lt;br&gt;delibery" style="shape=umlActor;verticalLabelPosition=bottom;verticalAlign=top;html=1;" vertex="1" parent="1">
          <mxGeometry x="660" y="280" width="30" height="60" as="geometry" />
        </mxCell>
        <mxCell id="1bLHogTg0dHGmXlVJYBw-10" value="socio" style="shape=umlActor;verticalLabelPosition=bottom;verticalAlign=top;html=1;" vertex="1" parent="1">
          <mxGeometry x="90" y="524.5" width="30" height="60" as="geometry" />
        </mxCell>
        <mxCell id="1bLHogTg0dHGmXlVJYBw-11" value="administrador" style="shape=umlActor;verticalLabelPosition=bottom;verticalAlign=top;html=1;" vertex="1" parent="1">
          <mxGeometry x="90" y="400" width="30" height="60" as="geometry" />
        </mxCell>
        <mxCell id="1bLHogTg0dHGmXlVJYBw-13" value="registrarse" style="ellipse;whiteSpace=wrap;html=1;" vertex="1" parent="1">
          <mxGeometry x="350" y="-110" width="140" height="40" as="geometry" />
        </mxCell>
        <mxCell id="1bLHogTg0dHGmXlVJYBw-14" value="ver productos" style="ellipse;whiteSpace=wrap;html=1;" vertex="1" parent="1">
          <mxGeometry x="390" y="-60" width="140" height="40" as="geometry" />
        </mxCell>
        <mxCell id="1bLHogTg0dHGmXlVJYBw-15" value="filtrar productos" style="ellipse;whiteSpace=wrap;html=1;" vertex="1" parent="1">
          <mxGeometry x="400" y="-10" width="140" height="40" as="geometry" />
        </mxCell>
        <mxCell id="1bLHogTg0dHGmXlVJYBw-16" value="buscar producto" style="ellipse;whiteSpace=wrap;html=1;" vertex="1" parent="1">
          <mxGeometry x="370" y="40" width="140" height="40" as="geometry" />
        </mxCell>
        <mxCell id="1bLHogTg0dHGmXlVJYBw-17" value="contactar a plantin" style="ellipse;whiteSpace=wrap;html=1;" vertex="1" parent="1">
          <mxGeometry x="330" y="90" width="140" height="40" as="geometry" />
        </mxCell>
        <mxCell id="1bLHogTg0dHGmXlVJYBw-18" value="visualizar novedades" style="ellipse;whiteSpace=wrap;html=1;" vertex="1" parent="1">
          <mxGeometry x="300" y="140" width="140" height="40" as="geometry" />
        </mxCell>
        <mxCell id="1bLHogTg0dHGmXlVJYBw-27" value="usuario" style="shape=umlActor;verticalLabelPosition=bottom;verticalAlign=top;html=1;" vertex="1" parent="1">
          <mxGeometry x="10" y="40" width="30" height="60" as="geometry" />
        </mxCell>
        <mxCell id="1bLHogTg0dHGmXlVJYBw-31" style="edgeStyle=none;rounded=0;orthogonalLoop=1;jettySize=auto;html=1;" edge="1" parent="1" source="1bLHogTg0dHGmXlVJYBw-28">
          <mxGeometry relative="1" as="geometry">
            <mxPoint x="25" y="120" as="targetPoint" />
          </mxGeometry>
        </mxCell>
        <mxCell id="1bLHogTg0dHGmXlVJYBw-28" value="cliente" style="shape=umlActor;verticalLabelPosition=bottom;verticalAlign=top;html=1;" vertex="1" parent="1">
          <mxGeometry x="10" y="160" width="30" height="60" as="geometry" />
        </mxCell>
        <mxCell id="1bLHogTg0dHGmXlVJYBw-33" value="Realizar pedido" style="ellipse;whiteSpace=wrap;html=1;" vertex="1" parent="1">
          <mxGeometry x="300" y="200" width="140" height="40" as="geometry" />
        </mxCell>
        <mxCell id="1bLHogTg0dHGmXlVJYBw-34" value="visualizar carrito de compra" style="ellipse;whiteSpace=wrap;html=1;" vertex="1" parent="1">
          <mxGeometry x="300" y="250" width="140" height="40" as="geometry" />
        </mxCell>
      </root>
    </mxGraphModel>
  </diagram>
</mxfile>
